<svg xmlns="http://www.w3.org/2000/svg" xml:space="preserve" viewBox="265.81 394.81 62.38 53.83"><path fill="#6983ae" fill-rule="evenodd" d="M293.394 439.474h18.457l.637-1.279h-18.67l-.424 1.279zm-5.517 1.706-3.606-2.985.637-2.345c.954-1.812-.425-3.41-.425-3.41l9.547-27.074c.544.147.85-.426.85-.426l.424-1.279c.687-1.266-.212-1.705-.212-1.705 2.885-5.287 9.547-5.116 9.547-5.116 8.189-.256 10.607 5.542 10.607 5.542 4.795 8.484-2.121 11.938-2.121 11.938-1.655 1.449-8.274 2.984-8.274 2.984-5.092 1.534-7.85 2.558-7.85 2.558-9.208 4.732-7.638 10.659-7.638 10.659.976 2.856 5.729 5.543 5.729 5.543l-.425.639h19.943c4.03-2.089 6.364 0 6.364 0h7.001c-2.206-9.507-12.093-10.445-12.093-10.445-10.777-1.151-19.519 8.313-19.519 8.313-5.897-2.856-4.879-5.329-4.879-5.329.382-7.035 11.031-9.166 11.031-9.166 4.413-1.279 8.911-2.771 8.911-2.771 7.977-2.559 7.638-8.74 7.638-8.74-.51-11.768-11.032-13.644-11.032-13.644-12.475-1.108-14.852 6.396-14.852 6.396-.6-.101-.849.426-.849.426l-.636 1.492c-.411.88.636 1.706.636 1.706l-9.334 27.073c-2.229-.479-2.971 4.477-2.971 4.477h-5.729l-2.758-1.065c-5.197-2.025-5.729 4.05-5.729 4.05l26.096 9.167 1.061-2.559c.586-4.266-5.09-4.904-5.09-4.904zm23.125-.214h-17.821c.584 7.621 12.518 7.035 12.518 7.035h7.214c-3.502-2.932-1.911-7.035-1.911-7.035zm12.094-2.772.849 1.279h4.243v-1.279h-5.092zm1.06 8.102c2.492-1.173 3.818-5.33 3.818-5.33h-3.182c.69 2.931-.636 5.33-.636 5.33zm-6.259-8.954c-3.105 0-5.622 2.529-5.622 5.649s2.517 5.649 5.622 5.649 5.622-2.529 5.622-5.649-2.516-5.649-5.622-5.649zm0 8.1a2.444 2.444 0 0 1-2.439-2.451c0-1.354 1.092-2.451 2.439-2.451s2.439 1.098 2.439 2.451a2.443 2.443 0 0 1-2.439 2.451z" clip-rule="evenodd"></path></svg>